<svg xmlns="http://www.w3.org/2000/svg" xmlns:xlink="http://www.w3.org/1999/xlink" width="558" zoomAndPan="magnify" viewBox="0 0 418.5 161.999997" height="216" preserveAspectRatio="xMidYMid meet" version="1.0"><defs><g/><clipPath id="834444377f"><path d="M 98 23.132812 L 320 23.132812 L 320 138.851562 L 98 138.851562 Z M 98 23.132812 " clip-rule="nonzero"/></clipPath><clipPath id="67e1c67013"><path d="M 172.828125 23.132812 L 313.511719 23.132812 C 315.65625 23.132812 317.640625 24.285156 318.703125 26.152344 C 319.765625 28.015625 319.746094 30.308594 318.652344 32.15625 L 260.816406 129.828125 C 257.503906 135.421875 251.484375 138.851562 244.984375 138.851562 L 104.300781 138.851562 C 102.152344 138.851562 100.171875 137.699219 99.109375 135.832031 C 98.042969 133.96875 98.0625 131.675781 99.15625 129.828125 L 156.996094 32.15625 C 160.308594 26.5625 166.328125 23.132812 172.828125 23.132812 Z M 172.828125 23.132812 " clip-rule="nonzero"/></clipPath></defs><g clip-path="url(#834444377f)"><g clip-path="url(#67e1c67013)"><path fill="#00df9a" d="M 93.8125 23.132812 L 323.996094 23.132812 L 323.996094 138.851562 L 93.8125 138.851562 Z M 93.8125 23.132812 " fill-opacity="1" fill-rule="nonzero"/></g></g><g fill="#00df9a" fill-opacity="1"><g transform="translate(23.033016, 119.37432)"><g><path d="M 39.171875 -68.796875 C 49.765625 -68.796875 58.566406 -65.5 65.578125 -58.90625 C 72.597656 -52.3125 76.109375 -44.078125 76.109375 -34.203125 C 76.109375 -24.265625 72.582031 -15.945312 65.53125 -9.25 C 58.488281 -2.5625 49.703125 0.78125 39.171875 0.78125 C 28.648438 0.78125 19.878906 -2.546875 12.859375 -9.203125 C 5.847656 -15.867188 2.34375 -24.203125 2.34375 -34.203125 C 2.34375 -44.140625 5.847656 -52.390625 12.859375 -58.953125 C 19.878906 -65.515625 28.648438 -68.796875 39.171875 -68.796875 Z M 39.375 -54.28125 C 34.039062 -54.28125 29.488281 -52.347656 25.71875 -48.484375 C 21.957031 -44.617188 20.078125 -39.828125 20.078125 -34.109375 C 20.078125 -28.390625 21.976562 -23.5625 25.78125 -19.625 C 29.582031 -15.695312 34.113281 -13.734375 39.375 -13.734375 C 44.632812 -13.734375 49.097656 -15.695312 52.765625 -19.625 C 56.441406 -23.5625 58.28125 -28.390625 58.28125 -34.109375 C 58.28125 -39.828125 56.441406 -44.617188 52.765625 -48.484375 C 49.097656 -52.347656 44.632812 -54.28125 39.375 -54.28125 Z M 39.375 -54.28125 "/></g></g></g><g fill="#ffffff" fill-opacity="1"><g transform="translate(166.549416, 119.37432)"><g><path d="M 69.78125 0 L 52.4375 0 L 52.4375 -26.5 L 24.171875 -26.5 L 24.171875 0 L 6.828125 0 L 6.828125 -68.21875 L 24.171875 -68.21875 L 24.171875 -40.15625 L 52.4375 -40.15625 L 52.4375 -68.21875 L 69.78125 -68.21875 Z M 69.78125 0 "/></g></g></g><g fill="#00df9a" fill-opacity="1"><g transform="translate(306.777743, 119.37432)"><g><path d="M 39.171875 -68.796875 C 49.765625 -68.796875 58.566406 -65.5 65.578125 -58.90625 C 72.597656 -52.3125 76.109375 -44.078125 76.109375 -34.203125 C 76.109375 -24.265625 72.582031 -15.945312 65.53125 -9.25 C 58.488281 -2.5625 49.703125 0.78125 39.171875 0.78125 C 28.648438 0.78125 19.878906 -2.546875 12.859375 -9.203125 C 5.847656 -15.867188 2.34375 -24.203125 2.34375 -34.203125 C 2.34375 -44.140625 5.847656 -52.390625 12.859375 -58.953125 C 19.878906 -65.515625 28.648438 -68.796875 39.171875 -68.796875 Z M 39.375 -54.28125 C 34.039062 -54.28125 29.488281 -52.347656 25.71875 -48.484375 C 21.957031 -44.617188 20.078125 -39.828125 20.078125 -34.109375 C 20.078125 -28.390625 21.976562 -23.5625 25.78125 -19.625 C 29.582031 -15.695312 34.113281 -13.734375 39.375 -13.734375 C 44.632812 -13.734375 49.097656 -15.695312 52.765625 -19.625 C 56.441406 -23.5625 58.28125 -28.390625 58.28125 -34.109375 C 58.28125 -39.828125 56.441406 -44.617188 52.765625 -48.484375 C 49.097656 -52.347656 44.632812 -54.28125 39.375 -54.28125 Z M 39.375 -54.28125 "/></g></g></g></svg>